<svg xmlns="http://www.w3.org/2000/svg" width="64" height="64" aria-label="SeasonalOverlaysLibrary" role="img" viewBox="0 0 64 64"><defs><linearGradient id="sol-bg" x1="0" x2="1" y1="0" y2="1"><stop offset="0" stop-color="#BF7FF9"/><stop offset="1" stop-color="#7a1fd6"/></linearGradient></defs><rect width="64" height="64" fill="url(#sol-bg)" rx="14"/><rect width="34" height="26" x="12" y="11" fill="#fff" fill-opacity=".28" rx="5"/><rect width="34" height="26" x="18" y="19" fill="#fff" rx="5"/><g fill="none" stroke="#7a1fd6" stroke-linecap="round" stroke-linejoin="round" stroke-width="2.4"><path d="M35 24.5v17M27.64 28.25l14.72 8.5M27.64 36.75l14.72-8.5"/><path d="M32.4 26.4 35 28.3l2.6-1.9M32.4 39.6 35 37.7l2.6 1.9"/></g><g fill="#fff"><circle cx="9" cy="13" r="1.4"/><circle cx="54" cy="11" r="1.7"/><circle cx="8" cy="31" r="1.6"/><circle cx="57" cy="30" r="1.3"/><circle cx="13" cy="50" r="2.1"/><circle cx="27" cy="54" r="1.6"/><circle cx="43" cy="55" r="2.2"/><circle cx="56" cy="49" r="1.5"/></g></svg>